<svg width="28" height="28" viewBox="0 0 28 28" fill="none" xmlns="http://www.w3.org/2000/svg">
<path fill-rule="evenodd" clip-rule="evenodd" d="M14.0001 0.666687C21.3627 0.666687 27.3334 6.63731 27.3334 14C27.3334 21.3627 21.3627 27.3334 14.0001 27.3334C6.63737 27.3334 0.666748 21.3627 0.666748 14C0.666748 6.63731 6.63737 0.666687 14.0001 0.666687ZM14.0001 3.33337C8.11881 3.33337 3.33344 8.11869 3.33344 14C3.33344 19.8814 8.11875 24.6667 14.0001 24.6667C19.8814 24.6667 24.6667 19.8814 24.6667 14C24.6667 8.11869 19.8814 3.33337 14.0001 3.33337ZM17.0574 9.05737L18.9427 10.9427L15.8854 14L18.9427 17.0574L17.0574 18.9427L14.0001 15.8854L10.9427 18.9427L9.05744 17.0574L12.1147 14L9.05744 10.9427L10.9427 9.05737L14.0001 12.1147L17.0574 9.05737Z" fill="#FF3434"/>
</svg>
