<svg width="28" height="28" viewBox="0 0 28 28" fill="none" xmlns="http://www.w3.org/2000/svg">
<path d="M14.0001 0.666664C11.363 0.666664 8.78514 1.44865 6.59248 2.91374C4.39983 4.37882 2.69086 6.4612 1.68169 8.89755C0.672525 11.3339 0.408481 14.0148 0.92295 16.6012C1.43742 19.1876 2.7073 21.5634 4.572 23.4281C6.4367 25.2928 8.81247 26.5627 11.3989 27.0771C13.9853 27.5916 16.6662 27.3276 19.1025 26.3184C21.5389 25.3092 23.6213 23.6003 25.0863 21.4076C26.5514 19.2149 27.3334 16.6371 27.3334 14C27.3334 12.249 26.9885 10.5152 26.3185 8.89755C25.6484 7.27988 24.6663 5.81002 23.4282 4.57191C22.1901 3.33379 20.7202 2.35167 19.1025 1.6816C17.4849 1.01154 15.751 0.666664 14.0001 0.666664ZM11.3334 20V8L19.3334 14L11.3334 20Z" fill="#00B05D"/>
</svg>
