<svg width="20" height="20" viewBox="0 0 20 20" fill="none" xmlns="http://www.w3.org/2000/svg">
<path d="M12 3.00601C12 2.13301 10.96 1.67901 10.32 2.27301L6.448 5.86601C6.35564 5.95198 6.23418 5.99984 6.108 6.00001H3.5C3.10218 6.00001 2.72064 6.15804 2.43934 6.43935C2.15804 6.72065 2 7.10218 2 7.50001V12.5C2 12.8978 2.15804 13.2794 2.43934 13.5607C2.72064 13.842 3.10218 14 3.5 14H6.107C6.23305 13.9999 6.35448 14.0474 6.447 14.133L10.32 17.727C10.96 18.32 12 17.867 12 16.994V3.00601ZM14.079 12.933C14.0221 12.9003 13.9721 12.8566 13.9321 12.8046C13.892 12.7525 13.8626 12.6931 13.8455 12.6296C13.8284 12.5662 13.824 12.5 13.8325 12.4349C13.841 12.3698 13.8622 12.3069 13.895 12.25C14.29 11.5659 14.4979 10.7899 14.4979 10C14.4979 9.21009 14.29 8.43409 13.895 7.75001C13.8588 7.6931 13.8345 7.62946 13.8236 7.56292C13.8126 7.49638 13.8153 7.42831 13.8313 7.36281C13.8474 7.29732 13.8765 7.23574 13.9169 7.18179C13.9574 7.12784 14.0084 7.08263 14.0667 7.04888C14.1251 7.01514 14.1897 6.99355 14.2567 6.98542C14.3236 6.97729 14.3915 6.98278 14.4563 7.00157C14.521 7.02036 14.5813 7.05205 14.6335 7.09475C14.6857 7.13744 14.7287 7.19025 14.76 7.25001C15.2429 8.08602 15.4972 9.03442 15.4974 9.99987C15.4975 10.9653 15.2436 11.9138 14.761 12.75C14.6947 12.8646 14.5857 12.9482 14.4578 12.9825C14.33 13.0168 14.1937 12.999 14.079 12.933Z" fill="black"/>
</svg>
